<svg width="738" height="162" viewBox="0 0 738 162" fill="none" xmlns="http://www.w3.org/2000/svg">
<path fill-rule="evenodd" clip-rule="evenodd" d="M77.2657 155.699V162H100.172V155.699C100.172 142.648 93.5648 133.202 84.8752 126.043C81.4637 123.233 77.633 120.694 73.6236 118.349C77.6314 116.006 81.4607 113.469 84.8714 110.66C92.8962 104.05 99.147 95.4898 100.057 83.9404H93.7319H76.9748C76.1239 88.1061 73.3917 91.8115 68.5975 95.5791C63.713 99.4176 57.3433 102.804 50.0942 106.371C42.8382 102.801 36.4626 99.4124 31.5744 95.5709C26.7834 91.8058 24.0516 88.1029 23.1988 83.9404H16.8063C18.4179 95.5343 29.539 102.967 42.9498 109.84L42.9497 109.84C29.5388 102.967 18.4176 95.5343 16.8061 83.9404H0.115117C1.02786 95.4857 7.27754 104.044 15.3002 110.652C18.7134 113.464 22.546 116.004 26.5571 118.349C22.5461 120.694 18.7136 123.233 15.3004 126.044C6.60986 133.201 0 142.647 0 155.699V162H22.9062V155.699C22.9062 150.289 25.6838 145.754 31.5742 141.124C36.4607 137.284 42.8335 133.897 50.0862 130.328C57.3387 133.897 63.7114 137.284 68.5977 141.124C74.4881 145.753 77.2657 150.288 77.2657 155.699ZM0.114518 78.0592H16.805C17.643 72.0148 21.0652 67.1013 26.0491 62.8085C21.0652 67.1013 17.6431 72.0148 16.8052 78.0592H23.1972C24.0483 73.8936 26.7804 70.1885 31.5744 66.4211C36.4589 62.5825 42.8286 59.1964 50.0777 55.6292C57.3337 59.1994 63.7093 62.5877 68.5975 66.4292C73.3884 70.1941 76.1201 73.8969 76.973 78.0592H100.057C99.1439 66.5141 92.8943 57.9563 84.8717 51.3479C81.4586 48.5363 77.6259 45.9965 73.6148 43.6511C77.6258 41.3065 81.4584 38.7674 84.8716 35.9563C93.5621 28.7987 100.172 19.3529 100.172 6.30073V0H77.2657V6.30073C77.2657 11.7114 74.4881 16.2465 68.5977 20.8757C63.7113 24.7158 57.3384 28.103 50.0857 31.6718C42.8332 28.1031 36.4605 24.716 31.5742 20.8759C25.6838 16.2468 22.9062 11.7117 22.9062 6.30098V0.000259399H0V6.30098C0 19.3523 6.60707 28.7981 15.2968 35.957C18.7082 38.7674 22.5389 41.3063 26.5483 43.6509C22.5406 45.994 18.7112 48.5315 15.3005 51.3405C7.27579 57.9497 1.02513 66.51 0.114518 78.0592ZM93.4505 86.0486C91.2013 99.1556 80.2047 107.632 67.1399 114.777L67.1396 114.776C80.2045 107.632 91.2012 99.1553 93.4505 86.0486ZM60.2758 118.348L60.2755 118.348L60.2753 118.348L60.2757 118.348L60.2758 118.348ZM80.7934 70.608C76.4634 63.0425 67.5174 57.4363 57.2221 52.1598L57.2224 52.1597C67.5177 57.4361 76.4635 63.0425 80.7934 70.608ZM7.10295 13.1945C10.0262 25.2614 20.5899 33.2724 33.0328 40.0788L33.0325 40.0789C20.5897 33.2725 10.026 25.2615 7.10295 13.1945ZM23.488 139.922C28.3099 134.929 35.2491 130.802 42.9423 126.859L42.9426 126.859C35.2494 130.802 28.31 134.929 23.488 139.922ZM67.1394 121.921L67.1393 121.921C81.8116 129.947 93.871 139.648 93.871 155.699L93.8712 155.699C93.8712 153.482 93.6411 151.386 93.2057 149.398C90.4895 137 79.7849 128.838 67.1394 121.921ZM83.5665 6.3008H93.871C93.871 11.5071 92.6018 16.0454 90.3861 20.0749C91.6582 17.7615 92.6184 15.2804 93.2055 12.6015C93.641 10.6142 93.8712 8.51805 93.8712 6.30073H83.5665V6.3008ZM6.30073 155.699L6.30074 155.699H16.6054V155.699H6.30073Z" fill="#D7F7C9"/>
<path d="M377.012 120.413C369.805 120.027 363.499 118.032 358.094 114.429C352.818 110.825 348.764 106.064 345.932 100.144C343.23 94.2239 342.2 87.7892 342.844 80.8397C343.487 75.1771 345.032 70.0293 347.477 65.3963C349.922 60.6346 353.075 56.5807 356.936 53.2347C360.925 49.8886 365.365 47.3791 370.256 45.7061C375.275 43.9043 380.551 43.1965 386.085 43.5826C393.936 43.9687 400.821 46.5426 406.741 51.3043C412.661 55.9373 416.65 61.4711 418.709 67.9059L416.972 70.4154L424.556 16H431.12L416.972 119.641H410.795L413.497 97.0552L414.462 100.337C410.602 106.643 405.325 111.726 398.633 115.587C391.941 119.319 384.734 120.928 377.012 120.413ZM378.364 115.008C384.283 115.394 389.817 114.365 394.965 111.919C400.242 109.474 404.617 106.064 408.092 101.688C411.695 97.1839 414.012 91.9717 415.041 86.0518L415.814 78.1371C415.556 72.8606 414.076 68.0989 411.374 63.852C408.8 59.4764 405.325 55.9373 400.949 53.2347C396.702 50.5321 391.812 49.0521 386.278 48.7947C380.101 48.4086 374.31 49.5025 368.904 52.0764C363.628 54.5216 359.188 58.1894 355.585 63.0798C352.11 67.9702 350.051 73.7615 349.407 80.4536C348.764 86.5022 349.6 92.1004 351.917 97.2482C354.362 102.396 357.837 106.579 362.341 109.796C366.974 112.885 372.315 114.622 378.364 115.008Z" fill="#FFFDEC"/>
<path d="M303.171 115.394C307.032 115.394 310.828 114.751 314.56 113.464C318.292 112.048 321.638 110.182 324.598 107.866L327.687 112.692C324.084 115.266 320.094 117.26 315.719 118.676C311.472 120.092 307.096 120.8 302.592 120.8C295.385 120.8 288.95 119.255 283.288 116.167C277.754 112.949 273.442 108.638 270.354 103.233C267.265 97.8276 265.721 91.6503 265.721 84.7007C265.721 79.1669 266.75 73.9548 268.809 69.0644C270.868 64.174 273.764 59.8627 277.496 56.1306C281.228 52.2697 285.54 49.2454 290.43 47.0576C295.449 44.8698 300.854 43.7759 306.646 43.7759C311.15 43.7759 315.268 44.4194 319 45.7063C322.732 46.9932 326.014 48.8593 328.845 51.3045C331.805 53.7497 334.251 56.774 336.181 60.3775C338.24 63.8522 339.784 67.7774 340.814 72.153L271.898 94.3528L270.74 89.1407L336.181 68.4852L333.864 70.6087C332.063 64.6887 328.845 59.6697 324.212 55.5514C319.579 51.3045 313.724 49.181 306.646 49.181C300.34 49.181 294.548 50.7254 289.272 53.8141C283.995 56.9027 279.813 61.1496 276.724 66.5548C273.635 71.8313 272.091 77.6225 272.091 83.9286C272.091 89.5911 273.378 94.8033 275.952 99.565C278.526 104.327 282.129 108.188 286.762 111.147C291.395 113.979 296.865 115.394 303.171 115.394Z" fill="#FFFDEC"/>
<path d="M148.478 45.5133L146.741 65.7826L146.162 63.2731C149.765 57.3532 154.591 52.6558 160.64 49.181C166.817 45.5776 173.574 43.7759 180.909 43.7759C187.087 43.7759 192.041 45.4489 195.773 48.795C199.506 52.141 201.372 56.581 201.372 62.1149L200.792 62.3079C204.396 56.774 209.158 52.3341 215.078 48.988C221.126 45.5133 227.625 43.7759 234.575 43.7759C241.653 43.7759 246.994 45.835 250.597 49.9532C254.329 53.9427 255.809 59.0905 255.037 65.3966L248.474 119.641H242.103L248.667 66.3618C249.053 61.8575 247.959 57.9966 245.385 54.7793C242.94 51.5619 239.015 49.7602 233.61 49.3741C228.204 49.3741 223.057 50.5967 218.166 53.0419C213.276 55.4871 209.158 58.8331 205.812 63.0801C202.594 67.327 200.535 72.0887 199.634 77.3652L194.422 119.641H188.052L194.615 66.3618C195.001 61.8575 193.907 57.9966 191.333 54.7793C188.76 51.5619 184.834 49.7602 179.558 49.3741C174.024 49.3741 168.812 50.661 163.921 53.2349C159.031 55.8088 154.913 59.2836 151.567 63.6592C148.221 67.9061 146.162 72.7965 145.389 78.3304L140.37 119.641H134L143.073 45.5133H148.478Z" fill="#FFFDEC"/>
<path d="M697.877 125.974C688.829 125.974 681.108 124.225 674.715 120.726C668.321 117.228 663.435 112.402 660.057 106.25C656.679 99.9766 654.99 92.9192 654.99 85.0777C654.99 77.3568 656.92 70.4201 660.781 64.2675C664.641 58.115 669.829 53.2291 676.343 49.6099C682.978 45.8701 690.277 44.0002 698.239 44.0002C708.735 44.0002 717.36 47.0765 724.116 53.2291C730.993 59.261 735.577 67.8264 737.869 78.9251L676.162 99.7353L671.457 88.3349L719.592 71.1439L715.43 73.4964C714.103 69.8772 711.932 66.7406 708.916 64.0866C706.02 61.4325 701.919 60.1055 696.611 60.1055C692.388 60.1055 688.648 61.1309 685.391 63.1818C682.134 65.112 679.54 67.8867 677.61 71.5058C675.8 75.0044 674.896 79.1664 674.896 83.9919C674.896 88.9381 675.921 93.2811 677.972 97.0209C680.023 100.761 682.797 103.656 686.296 105.707C689.794 107.637 693.776 108.602 698.239 108.602C701.376 108.602 704.392 108.059 707.287 106.974C710.182 105.888 712.897 104.44 715.43 102.631L724.659 117.65C720.678 120.184 716.275 122.234 711.449 123.803C706.744 125.25 702.22 125.974 697.877 125.974Z" fill="#FFFDEC"/>
<path d="M626.925 47.4384L628.735 69.1534L628.011 66.0771C630.182 61.4928 633.138 57.5721 636.878 54.3148C640.738 50.937 644.659 48.4036 648.64 46.7146C652.621 44.905 655.878 44.0002 658.412 44.0002L657.507 64.2675C651.716 63.785 646.65 64.8707 642.307 67.5248C638.084 70.0582 634.767 73.4361 632.354 77.6584C630.062 81.8808 628.916 86.3444 628.916 91.0493V123.984H608.648V47.4384H626.925Z" fill="#FFFDEC"/>
<path d="M547.185 125.974C539.946 125.974 533.372 124.466 527.46 121.45C521.67 118.434 517.085 113.971 513.707 108.059C510.33 102.027 508.641 94.6081 508.641 85.8015C508.641 77.1155 510.39 69.6963 513.888 63.5437C517.508 57.2705 522.212 52.445 528.003 49.0671C533.914 45.6892 540.308 44.0002 547.185 44.0002C554.544 44.0002 560.455 45.4479 564.919 48.3432C569.503 51.2386 573.062 54.6768 575.595 58.6578L574.509 61.5532L576.5 47.4384H595.139V123.984H574.871V105.345L576.862 110.231C576.379 110.955 575.414 112.161 573.966 113.85C572.519 115.418 570.528 117.168 567.995 119.098C565.461 121.028 562.445 122.657 558.947 123.984C555.569 125.311 551.648 125.974 547.185 125.974ZM552.794 109.326C556.414 109.326 559.671 108.663 562.566 107.336C565.582 106.008 568.115 104.139 570.166 101.726C572.338 99.3131 573.906 96.4177 574.871 93.0398V76.3917C573.906 73.2551 572.338 70.5407 570.166 68.2486C567.995 65.8358 565.341 63.9659 562.204 62.6389C559.188 61.3119 555.81 60.6484 552.071 60.6484C547.969 60.6484 544.169 61.6738 540.67 63.7247C537.172 65.7755 534.337 68.6105 532.165 72.2297C530.114 75.8488 529.089 80.0109 529.089 84.7158C529.089 89.3 530.175 93.4621 532.346 97.2019C534.518 100.942 537.413 103.897 541.032 106.069C544.651 108.24 548.572 109.326 552.794 109.326Z" fill="#FFFDEC"/>
<path d="M508.669 116.926C505.291 119.7 501.129 121.932 496.183 123.621C491.357 125.189 486.471 125.974 481.525 125.974C473.08 125.974 465.661 124.345 459.267 121.088C452.873 117.71 447.867 113.065 444.248 107.154C440.749 101.122 439 93.944 439 85.6199C439 77.2959 440.87 70.1179 444.61 64.0859C448.47 58.054 453.477 53.4697 459.629 50.3331C465.902 47.0759 472.538 45.4473 479.535 45.4473C485.928 45.4473 491.598 46.3521 496.545 48.1616C501.491 49.8506 505.773 52.203 509.393 55.219L499.259 68.4289C497.329 66.8606 494.795 65.413 491.659 64.0859C488.643 62.6383 485.205 61.9144 481.344 61.9144C477.242 61.9144 473.503 62.9399 470.125 64.9907C466.868 67.0416 464.213 69.8766 462.163 73.4957C460.232 76.9943 459.267 81.0357 459.267 85.6199C459.267 89.9629 460.293 93.944 462.344 97.5631C464.394 101.182 467.229 104.078 470.849 106.249C474.468 108.3 478.63 109.325 483.335 109.325C486.351 109.325 489.125 108.903 491.659 108.059C494.313 107.094 496.605 105.827 498.535 104.259L508.669 116.926Z" fill="#FFFDEC"/>
</svg>
