<svg width="471" height="218" viewBox="0 0 471 218" fill="none" xmlns="http://www.w3.org/2000/svg">
<path d="M416.215 104.413C409.008 104.027 402.702 102.032 397.297 98.4289C392.021 94.8255 387.967 90.0638 385.136 84.1438C382.433 78.2239 381.403 71.7892 382.047 64.8397C382.69 59.1771 384.235 54.0293 386.68 49.3963C389.125 44.6346 392.278 40.5807 396.139 37.2347C400.129 33.8886 404.568 31.3791 409.459 29.7061C414.478 27.9043 419.754 27.1965 425.288 27.5826C433.139 27.9687 440.024 30.5426 445.944 35.3043C451.864 39.9373 455.853 45.4711 457.912 51.9059L456.175 54.4154L463.759 0H470.323L456.175 103.641H449.998L452.7 81.0552L453.665 84.3369C449.805 90.6429 444.528 95.7263 437.836 99.5872C431.144 103.319 423.937 104.928 416.215 104.413ZM417.567 99.0081C423.487 99.3941 429.02 98.3646 434.168 95.9194C439.445 93.4742 443.82 90.0638 447.295 85.6882C450.899 81.1839 453.215 75.9717 454.245 70.0518L455.017 62.1371C454.759 56.8606 453.279 52.0989 450.577 47.852C448.003 43.4764 444.528 39.9373 440.153 37.2347C435.906 34.5321 431.015 33.0521 425.481 32.7947C419.304 32.4086 413.513 33.5025 408.108 36.0764C402.831 38.5216 398.391 42.1894 394.788 47.0798C391.313 51.9702 389.254 57.7615 388.61 64.4536C387.967 70.5022 388.803 76.1004 391.12 81.2482C393.565 86.396 397.04 90.5786 401.544 93.7959C406.177 96.8846 411.518 98.622 417.567 99.0081Z" fill="#FFFDEC"/>
<path d="M342.374 99.3944C346.235 99.3944 350.031 98.7509 353.763 97.464C357.496 96.0483 360.842 94.1823 363.802 91.8658L366.89 96.6918C363.287 99.2657 359.297 101.26 354.922 102.676C350.675 104.092 346.299 104.8 341.795 104.8C334.588 104.8 328.153 103.255 322.491 100.167C316.957 96.9492 312.646 92.6379 309.557 87.2328C306.468 81.8276 304.924 75.6503 304.924 68.7007C304.924 63.1669 305.953 57.9548 308.013 53.0644C310.072 48.174 312.967 43.8627 316.699 40.1306C320.432 36.2697 324.743 33.2454 329.633 31.0576C334.652 28.8698 340.057 27.7759 345.849 27.7759C350.353 27.7759 354.471 28.4194 358.203 29.7063C361.936 30.9932 365.217 32.8593 368.049 35.3045C371.008 37.7497 373.454 40.774 375.384 44.3775C377.443 47.8522 378.988 51.7774 380.017 56.153L311.101 78.3528L309.943 73.1407L375.384 52.4852L373.068 54.6087C371.266 48.6887 368.049 43.6697 363.416 39.5514C358.783 35.3045 352.927 33.181 345.849 33.181C339.543 33.181 333.751 34.7254 328.475 37.8141C323.198 40.9027 319.016 45.1496 315.927 50.5548C312.839 55.8313 311.294 61.6225 311.294 67.9286C311.294 73.5911 312.581 78.8033 315.155 83.565C317.729 88.3267 321.332 92.1875 325.965 95.1475C330.598 97.9788 336.068 99.3944 342.374 99.3944Z" fill="#FFFDEC"/>
<path d="M187.681 29.5133L185.944 49.7826L185.365 47.2731C188.968 41.3532 193.794 36.6558 199.843 33.181C206.02 29.5776 212.777 27.7759 220.112 27.7759C226.29 27.7759 231.244 29.4489 234.977 32.795C238.709 36.141 240.575 40.581 240.575 46.1149L239.996 46.3079C243.599 40.774 248.361 36.3341 254.281 32.988C260.329 29.5133 266.828 27.7759 273.778 27.7759C280.856 27.7759 286.197 29.835 289.8 33.9532C293.533 37.9427 295.013 43.0905 294.24 49.3966L287.677 103.641H281.307L287.87 50.3618C288.256 45.8575 287.162 41.9966 284.588 38.7793C282.143 35.5619 278.218 33.7602 272.813 33.3741C267.408 33.3741 262.26 34.5967 257.369 37.0419C252.479 39.4871 248.361 42.8331 245.015 47.0801C241.797 51.327 239.738 56.0887 238.837 61.3652L233.625 103.641H227.255L233.818 50.3618C234.204 45.8575 233.11 41.9966 230.537 38.7793C227.963 35.5619 224.037 33.7602 218.761 33.3741C213.227 33.3741 208.015 34.661 203.125 37.2349C198.234 39.8088 194.116 43.2836 190.77 47.6592C187.424 51.9061 185.365 56.7965 184.593 62.3304L179.574 103.641H173.203L182.276 29.5133H187.681Z" fill="#FFFDEC"/>
<path d="M430.679 201.001C421.631 201.001 413.91 199.251 407.516 195.753C401.122 192.254 396.236 187.429 392.858 181.276C389.48 175.003 387.792 167.946 387.792 160.104C387.792 152.383 389.722 145.446 393.582 139.294C397.443 133.141 402.63 128.255 409.145 124.636C415.78 120.897 423.078 119.027 431.04 119.027C441.536 119.027 450.162 122.103 456.917 128.255C463.794 134.287 468.378 142.853 470.67 153.951L408.964 174.762L404.259 163.361L452.393 146.17L448.231 148.523C446.904 144.904 444.733 141.767 441.717 139.113C438.822 136.459 434.72 135.132 429.412 135.132C425.189 135.132 421.45 136.157 418.192 138.208C414.935 140.138 412.341 142.913 410.411 146.532C408.602 150.031 407.697 154.193 407.697 159.018C407.697 163.964 408.722 168.307 410.773 172.047C412.824 175.787 415.599 178.682 419.097 180.733C422.596 182.663 426.577 183.629 431.04 183.629C434.177 183.629 437.193 183.086 440.088 182C442.984 180.914 445.698 179.467 448.231 177.657L457.46 192.676C453.479 195.21 449.076 197.261 444.25 198.829C439.545 200.277 435.022 201.001 430.679 201.001Z" fill="#FFFDEC"/>
<path d="M359.726 122.465L361.536 144.18L360.812 141.103C362.984 136.519 365.939 132.598 369.679 129.341C373.54 125.963 377.46 123.43 381.441 121.741C385.422 119.931 388.68 119.027 391.213 119.027L390.308 139.294C384.518 138.811 379.451 139.897 375.108 142.551C370.886 145.085 367.568 148.462 365.155 152.685C362.863 156.907 361.717 161.371 361.717 166.076V199.01H341.45V122.465H359.726Z" fill="#FFFDEC"/>
<path d="M279.986 201.001C272.748 201.001 266.173 199.493 260.262 196.477C254.471 193.461 249.887 188.997 246.509 183.086C243.131 177.054 241.442 169.635 241.442 160.828C241.442 152.142 243.191 144.723 246.69 138.57C250.309 132.297 255.014 127.471 260.804 124.093C266.716 120.716 273.11 119.027 279.986 119.027C287.345 119.027 293.256 120.474 297.72 123.37C302.304 126.265 305.863 129.703 308.396 133.684L307.311 136.58L309.301 122.465H327.94V199.01H307.672V180.371L309.663 185.257C309.18 185.981 308.215 187.187 306.768 188.876C305.32 190.445 303.329 192.194 300.796 194.124C298.263 196.054 295.247 197.683 291.748 199.01C288.37 200.337 284.45 201.001 279.986 201.001ZM285.596 184.352C289.215 184.352 292.472 183.689 295.367 182.362C298.383 181.035 300.917 179.165 302.968 176.752C305.139 174.339 306.707 171.444 307.672 168.066V151.418C306.707 148.281 305.139 145.567 302.968 143.275C300.796 140.862 298.142 138.992 295.005 137.665C291.989 136.338 288.612 135.675 284.872 135.675C280.77 135.675 276.97 136.7 273.471 138.751C269.973 140.802 267.138 143.637 264.966 147.256C262.916 150.875 261.89 155.037 261.89 159.742C261.89 164.326 262.976 168.488 265.147 172.228C267.319 175.968 270.214 178.924 273.833 181.095C277.453 183.267 281.373 184.352 285.596 184.352Z" fill="#FFFDEC"/>
<path d="M241.47 191.952C238.092 194.727 233.93 196.959 228.984 198.647C224.158 200.216 219.273 201 214.326 201C205.882 201 198.462 199.371 192.069 196.114C185.675 192.736 180.668 188.092 177.049 182.18C173.551 176.148 171.801 168.97 171.801 160.646C171.801 152.322 173.671 145.144 177.411 139.112C181.271 133.08 186.278 128.496 192.43 125.359C198.704 122.102 205.339 120.474 212.336 120.474C218.73 120.474 224.4 121.378 229.346 123.188C234.292 124.877 238.575 127.229 242.194 130.245L232.06 143.455C230.13 141.887 227.597 140.439 224.46 139.112C221.444 137.665 218.006 136.941 214.145 136.941C210.044 136.941 206.304 137.966 202.926 140.017C199.669 142.068 197.015 144.903 194.964 148.522C193.034 152.021 192.069 156.062 192.069 160.646C192.069 164.989 193.094 168.97 195.145 172.59C197.196 176.209 200.031 179.104 203.65 181.275C207.269 183.326 211.431 184.352 216.136 184.352C219.152 184.352 221.927 183.93 224.46 183.085C227.114 182.12 229.406 180.853 231.336 179.285L241.47 191.952Z" fill="#FFFDEC"/>
<path fill-rule="evenodd" clip-rule="evenodd" d="M103.977 209.525V218.004H134.801V209.525C134.801 191.961 125.91 179.25 114.217 169.617C109.626 165.835 104.471 162.418 99.0753 159.263C104.469 156.11 109.622 152.695 114.212 148.915C125.011 140.021 133.422 128.501 134.648 112.959H126.135H103.585C102.44 118.565 98.7633 123.551 92.3118 128.621C85.7387 133.786 77.1669 138.343 67.4116 143.143C57.6473 138.339 49.0676 133.78 42.4896 128.61C36.0423 123.543 32.3662 118.56 31.2185 112.959H0.15475C1.38306 128.495 9.79324 140.012 20.5893 148.905C25.1824 152.688 30.3401 156.106 35.7378 159.262C30.3403 162.418 25.1828 165.834 20.5897 169.617C8.8949 179.249 0 191.961 0 209.525V218.004H30.8249V209.525C30.8249 202.244 34.5627 196.141 42.4895 189.911C49.0651 184.744 57.641 180.186 67.4009 175.383C77.1606 180.186 85.7364 184.744 92.3119 189.911C100.239 196.141 103.977 202.243 103.977 209.525ZM0.153933 105.045H22.6146H31.2164C32.3616 99.4389 36.0383 94.4528 42.4896 89.3829C49.0627 84.2173 57.6345 79.6607 67.3898 74.8603C77.1541 79.6647 85.7338 84.2242 92.3118 89.3937C98.759 94.4603 102.435 99.4433 103.583 105.045H134.647C133.418 89.5082 125.008 77.9918 114.212 69.0988C109.619 65.3153 104.461 61.8975 99.0636 58.7413C104.461 55.5862 109.619 52.1693 114.212 48.3864C125.907 38.7545 134.801 26.0432 134.801 8.47891V0H103.977V8.47891C103.977 15.7601 100.239 21.863 92.3119 28.0924C85.7363 33.26 77.1604 37.8182 67.4005 42.6207C57.6408 37.8183 49.065 33.2602 42.4895 28.0927C34.5627 21.8632 30.8249 15.7603 30.8249 8.47911V0.000213623H0V8.47911C0 26.0423 8.89115 38.7535 20.5849 48.3872C25.1757 52.1692 30.3306 55.5858 35.7261 58.741C30.3328 61.8941 25.1795 65.3088 20.5898 69.089C9.79086 77.983 1.37932 89.5027 0.153933 105.045ZM125.141 118.694C121.068 134.703 106.949 145.377 90.3501 154.455L90.3497 154.455C106.949 145.377 121.068 134.702 125.141 118.694ZM31.8384 188.056C38.3169 181.444 47.5567 175.958 57.7875 170.714L57.7878 170.714C47.557 175.958 38.317 181.444 31.8384 188.056ZM111.707 102.495C108.344 88.3337 94.048 78.9267 77.0039 70.1915L77.0043 70.1913C94.0484 78.9265 108.344 88.3336 111.707 102.495ZM9.72458 18.4151C13.8792 34.2871 27.9356 44.8991 44.4523 53.934L44.4519 53.9342C27.9353 44.8993 13.8791 34.2872 9.72458 18.4151ZM126.322 8.47888C126.322 12.8172 125.668 16.8107 124.461 20.5105C124.838 19.3554 125.161 18.1717 125.427 16.9578C126.013 14.2835 126.322 11.4628 126.322 8.47891L126.322 8.47888ZM8.47894 209.524H22.346L22.346 209.525H8.47891C8.47891 209.338 8.48013 209.152 8.48254 208.967C8.48013 209.152 8.47894 209.338 8.47894 209.524Z" fill="#D7F7C9"/>
</svg>
